<svg width="13" height="12" viewBox="0 0 13 12" fill="none" xmlns="http://www.w3.org/2000/svg">
<path d="M10.2569 4.73716L8.07223 4.41865L7.09578 2.43884C6.92083 2.08595 6.41392 2.08146 6.23747 2.43884L5.26102 4.41865L3.07635 4.73716C2.68458 4.79398 2.52757 5.27697 2.81168 5.5536L4.39224 7.09379L4.01841 9.26948C3.95112 9.66275 4.36532 9.95733 4.71224 9.77341L6.66663 8.74612L8.62102 9.77341C8.96793 9.95584 9.38214 9.66275 9.31485 9.26948L8.94102 7.09379L10.5216 5.5536C10.8057 5.27697 10.6487 4.79398 10.2569 4.73716ZM8.17092 6.84257L8.52531 8.9121L6.66663 7.93565L4.80794 8.9121L5.16233 6.84257L3.65803 5.37716L5.73653 5.0751L6.66663 3.19099L7.59672 5.0751L9.67522 5.37716L8.17092 6.84257Z" fill="#F8C034"/>
</svg>