<svg width="13" height="12" viewBox="0 0 13 12" fill="none" xmlns="http://www.w3.org/2000/svg">
<path d="M7.10185 2.39269C7.02156 2.22604 6.85188 2.12 6.66554 2.12C6.47919 2.12 6.31103 2.22604 6.22922 2.39269L5.25508 4.39702L3.07956 4.7182C2.89776 4.74547 2.74626 4.87273 2.69021 5.04695C2.63415 5.22118 2.6796 5.41358 2.80989 5.54236L4.38851 7.10431L4.01582 9.31165C3.98552 9.49345 4.06127 9.67828 4.21126 9.78584C4.36124 9.8934 4.5597 9.90704 4.72332 9.82069L6.66705 8.78292L8.61078 9.82069C8.7744 9.90704 8.97287 9.89492 9.12285 9.78584C9.27283 9.67676 9.34858 9.49345 9.31828 9.31165L8.94408 7.10431L10.5227 5.54236C10.653 5.41358 10.7 5.22118 10.6424 5.04695C10.5848 4.87273 10.4348 4.74547 10.253 4.7182L8.07599 4.39702L7.10185 2.39269Z" fill="#F8C034"/>
</svg>