<svg width="10" height="10" viewBox="0 0 10 10" fill="none" xmlns="http://www.w3.org/2000/svg">
<path d="M8.68333 1.92086C8.47052 1.70795 8.21784 1.53905 7.93973 1.42381C7.66162 1.30858 7.36354 1.24927 7.0625 1.24927C6.76146 1.24927 6.46337 1.30858 6.18527 1.42381C5.90716 1.53905 5.65448 1.70795 5.44167 1.92086L5 2.36253L4.55833 1.92086C4.12846 1.49099 3.54543 1.24949 2.9375 1.24949C2.32957 1.24949 1.74654 1.49099 1.31667 1.92086C0.886794 2.35073 0.645294 2.93376 0.645294 3.54169C0.645294 4.14963 0.886794 4.73266 1.31667 5.16253L5 8.84586L8.68333 5.16253C8.89625 4.94971 9.06514 4.69703 9.18038 4.41893C9.29561 4.14082 9.35493 3.84273 9.35493 3.54169C9.35493 3.24066 9.29561 2.94257 9.18038 2.66446C9.06514 2.38636 8.89625 2.13368 8.68333 1.92086Z" stroke="#1F66F0" stroke-linecap="round" stroke-linejoin="round"/>
</svg>